<svg width="104" height="110" viewBox="0 0 104 110" fill="none" xmlns="http://www.w3.org/2000/svg">
<path d="M62.2469 92L47 76.1017L73.037 50H104L62.2469 92Z" fill="#E13327"/>
<path d="M73.1892 103L47 75.8725L62.4054 61L104 103H73.1892Z" fill="#831C14"/>
<path d="M62.2469 92L47 76.1017L73.037 50H104L62.2469 92Z" fill="#46D1FD"/>
<path d="M73.1892 103L47 75.8725L62.4054 61L104 103H73.1892Z" fill="#0B579B"/>
<path d="M39.4762 69L24 52.989L72.8095 4H104L39.4762 69Z" fill="#46D1FD"/>
<path d="M27.1769 26C27.1769 39.8924 37.5553 91.8125 51 105.469C39.7961 102.055 31.6661 95.9491 31.6661 95.9491L27.1769 107L22.9122 95.9491C22.9122 95.9491 11.5541 104.557 3 107C19.0393 86.8677 27.1769 39.8924 27.1769 26Z" fill="#2E2E2E"/>
<path fill-rule="evenodd" clip-rule="evenodd" d="M27.1749 22C28.9785 22 30.4406 23.4828 30.4406 25.3118C30.4406 31.8615 32.9212 48.064 37.1293 64.4868C39.2208 72.6492 41.7081 80.7411 44.4675 87.5986C47.2647 94.5499 50.2052 99.8794 53.0634 102.829C54.1104 103.909 54.3011 105.573 53.5265 106.868C52.7519 108.163 51.2095 108.76 49.7808 108.318C43.9456 106.511 38.9395 104.004 35.4023 101.959C34.5646 101.475 33.8063 101.015 33.1357 100.594L30.2012 107.933C29.6976 109.192 28.4864 110.012 27.1463 110C25.8062 109.988 24.6094 109.147 24.1276 107.879L21.4227 100.758C20.4378 101.439 19.2861 102.213 18.0241 103.019C14.1151 105.516 8.86455 108.508 4.16373 109.872C2.79888 110.268 1.33817 109.724 0.549835 108.527C-0.238495 107.33 -0.173841 105.753 0.709792 104.626C8.17973 95.1013 14.0247 78.8404 18.0018 62.8396C21.9628 46.9037 23.9093 31.9102 23.9093 25.3118C23.9093 23.4828 25.3714 22 27.1749 22ZM25.6199 41.4017C22.8774 59.5477 16.5162 85.8197 6.60744 101.862C5.53503 103.598 4.42108 105.215 3.26566 106.688C5.04868 106.171 6.9549 105.378 8.85317 104.45C13.2118 102.317 17.5286 99.4671 20.2158 97.5811C21.9108 96.3916 22.9574 95.5857 22.9574 95.5857L27.1749 106.688L31.6144 95.5857C31.6144 95.5857 32.6094 96.3448 34.3816 97.4783C36.7103 98.9678 40.381 101.104 44.9 103.013C46.7181 103.781 48.6736 104.512 50.7343 105.15C49.4869 103.863 48.2661 102.237 47.078 100.337C38.7141 86.9559 31.9689 59.9423 28.9262 41.3804C27.7944 34.4759 27.1749 28.7408 27.1749 25.3118C27.1749 28.8583 26.6553 34.5509 25.6199 41.4017Z" fill="white"/>
<path d="M15.8902 16.3844L23.2922 23.8594L15.8902 31.3343L8.48816 23.8594L15.8902 16.3844Z" fill="#2E2E2E"/>
<path fill-rule="evenodd" clip-rule="evenodd" d="M13.5676 14.0389C14.8503 12.7435 16.9301 12.7435 18.2128 14.0389L25.6149 21.5139C26.8976 22.8093 26.8976 24.9095 25.6149 26.2049L18.2128 33.6799C16.9301 34.9753 14.8503 34.9753 13.5676 33.6799L6.16552 26.2049C4.88276 24.9095 4.88276 22.8093 6.16552 21.5139L13.5676 14.0389ZM15.8902 16.3844L8.48816 23.8594L15.8902 31.3344L23.2922 23.8594L15.8902 16.3844Z" fill="white"/>
<path d="M38.7609 15.7728L46.1629 23.2478L38.7609 30.7228L31.3588 23.2478L38.7609 15.7728Z" fill="#2E2E2E"/>
<path fill-rule="evenodd" clip-rule="evenodd" d="M36.4382 13.4273C37.721 12.1319 39.8007 12.1319 41.0835 13.4273L48.4855 20.9023C49.7683 22.1977 49.7683 24.2979 48.4855 25.5933L41.0835 33.0683C39.8007 34.3637 37.721 34.3637 36.4382 33.0683L29.0362 25.5933C27.7534 24.2979 27.7534 22.1977 29.0362 20.9023L36.4382 13.4273ZM38.7609 15.7728L31.3588 23.2478L38.7609 30.7228L46.1629 23.2478L38.7609 15.7728Z" fill="white"/>
<path d="M27.6791 4.69104L35.0812 12.166L27.6791 19.641L20.2771 12.166L27.6791 4.69104Z" fill="#2E2E2E"/>
<path fill-rule="evenodd" clip-rule="evenodd" d="M25.3565 2.34553C26.6393 1.05013 28.719 1.05013 30.0018 2.34553L37.4038 9.8205C38.6866 11.1159 38.6866 13.2162 37.4038 14.5116L30.0018 21.9865C28.719 23.2819 26.6393 23.2819 25.3565 21.9865L17.9545 14.5116C16.6717 13.2162 16.6717 11.1159 17.9545 9.8205L25.3565 2.34553ZM27.6791 4.69106L20.2771 12.166L27.6791 19.641L35.0812 12.166L27.6791 4.69106Z" fill="white"/>
</svg>
