<svg width="252" height="90" viewBox="0 0 252 90" fill="none" xmlns="http://www.w3.org/2000/svg">
<path d="M148.481 48.5062C148.135 49.0301 147.914 49.3893 147.672 49.7354C145.419 52.9638 142.89 55.9115 139.442 57.9512C134.821 60.6836 129.812 61.8106 124.591 60.6789C121.913 60.0976 119.42 58.5982 116.898 57.4019C116.316 57.1274 115.998 57.1205 115.481 57.4256C113.317 58.7021 111.213 60.1329 108.921 61.1253C104.855 62.8861 100.573 63.8727 96.1467 62.7017C93.3725 61.9676 90.9727 60.4044 88.8046 58.5241C87.267 57.191 87.1683 57.1922 85.6088 58.475C82.8047 60.7828 79.5675 62.2708 76.1801 63.5C71.9781 65.0261 67.6446 65.9613 63.2124 66.4003C57.8046 66.9358 52.7901 66.0173 49.1305 61.5714C46.1971 58.009 45.4127 53.8765 47.2072 49.5806C49.1727 44.8768 51.4455 40.2996 53.5797 35.6674C54.6926 33.254 55.8126 30.843 56.892 28.4152C57.0894 27.9692 57.1692 27.4489 57.1917 26.9566C57.234 26.0514 57.4182 25.0601 56.3717 24.5155C55.3025 23.9609 54.0411 24.0609 53.2574 25.0527C52.2749 26.2935 51.4057 27.6526 50.6744 29.0575C48.2521 33.7076 45.9084 38.4004 43.5456 43.081C41.773 46.5908 40.0345 50.1161 38.2458 53.6167C36.5511 56.9371 33.3658 58.2021 29.9136 56.911C28.7509 56.4744 28.0215 55.6165 27.8256 54.3116C27.5484 52.4603 28.1554 50.8024 28.8121 49.1451C30.2462 45.5199 31.6989 41.9015 33.1324 38.2751C33.9 36.3307 34.6682 34.3848 35.3889 32.4225C35.8938 31.0505 36.0455 29.5954 35.4566 28.2477C35.0008 27.2086 34.1038 26.4577 32.8454 26.5692C31.4711 26.6911 30.39 27.4091 29.8719 28.6852C28.0491 33.1861 26.3007 37.7165 24.5073 42.229C22.3623 47.6302 20.253 53.046 18.0185 58.4107C17.1914 60.3931 15.9438 62.1983 13.8447 63.0468C12.7821 63.4777 11.5791 63.7441 10.4348 63.7602C6.86487 63.8069 3.78171 62.6142 1.67599 59.5838C0.00160691 57.1739 -0.407924 54.4918 0.401325 51.6545C1.14971 49.0279 1.89824 46.4014 2.68329 43.7851C3.42716 41.3059 4.21791 38.84 4.99009 36.3683C5.70976 34.0669 6.38259 31.7482 7.16294 29.4677C8.6987 24.9783 9.9371 20.3543 12.3709 16.2362C14.036 13.4185 16.7334 11.8951 19.8268 10.9501C23.0611 9.9635 25.8163 11.2055 28.5776 12.5797C29.6247 13.0994 30.658 13.6553 31.7328 14.1081C33.2322 14.7377 34.5994 14.3391 35.8105 13.3525C36.8017 12.5455 37.802 11.7392 38.7156 10.8468C40.9982 8.61817 45.929 8.2052 48.3387 10.7988C48.8937 11.396 49.5486 11.8998 50.1614 12.4411C51.4228 13.5554 51.9444 13.669 53.4038 12.8454C56.8745 10.8855 60.4699 11.1568 64.0041 12.4132C66.0545 13.1428 67.2818 14.885 68.0655 16.9483C69.2183 19.9861 68.735 22.9194 67.5799 25.7748C65.4549 31.0278 63.1405 36.203 61.0671 41.4757C59.8381 44.6036 58.8002 47.8199 57.917 51.0617C57.5573 52.3828 57.5549 53.9493 57.8905 55.2767C58.3982 57.2859 60.2382 57.9442 62.0993 58.18C64.9334 58.5393 67.7144 58.0125 70.4296 57.2615C72.7485 56.6226 75.0316 55.8341 77.2963 55.0156C78.389 54.6205 79.4074 54.0141 80.4504 53.4843C81.3427 53.0331 81.4116 52.3724 80.9414 51.5417C79.9808 49.8463 78.9706 48.1723 78.1244 46.4186C76.3352 42.7118 74.8629 38.8867 75.2557 34.6596C75.5988 30.9597 76.9347 27.7463 80.3481 25.799C85.3874 22.9264 89.4767 23.7196 93.1806 28.0114C96.3839 31.724 97.4402 36.1931 96.0651 40.9813C95.2957 43.6586 94.1949 46.2465 93.1448 48.8356C92.8543 49.5525 93.0229 50.0117 93.4764 50.4339C95.5978 52.4157 98.0167 53.9552 100.702 55.0446C101.714 55.4571 102.785 55.7643 103.858 55.9799C106.166 56.4425 108.307 55.8932 110.229 54.5888C111.145 53.9684 111.165 53.3886 110.53 52.5227C106.107 46.4902 104.357 39.7758 105.686 32.3975C106.184 29.6352 107.461 27.026 110.426 26.2306C112.258 25.7384 114.33 25.7592 116.235 26.0019C119.332 26.3958 122.137 27.6319 124.039 30.2984C126.322 33.498 126.905 36.9996 125.922 40.8247C125.217 43.5721 123.776 45.9093 122.189 48.1793C121.561 49.0793 121.537 49.9088 122.393 50.5107C123.712 51.4379 125.053 52.4544 126.544 52.9913C129.783 54.1569 133.144 54.0553 136.407 53.0062C139.977 51.856 142.486 49.4873 143.917 45.9723C145.626 41.7688 145.647 37.3659 145.56 32.947C145.492 29.4943 145.371 26.0419 145.269 22.5881C145.232 21.3548 145.034 21.2832 143.858 21.5224C140.761 22.1481 137.649 22.702 134.541 23.2704C133.561 23.4483 132.572 23.569 131.592 23.7458C129.457 24.13 127.695 23.2526 127.575 20.7547C127.452 18.2374 127.087 15.7321 126.828 13.2204C126.813 13.079 126.802 12.9368 126.794 12.7941C126.65 9.83842 127.365 8.23075 130.913 8.35954C134.577 8.49422 138.241 8.61492 141.901 8.8072C143.701 8.90081 144.334 8.44732 144.452 6.66075C144.544 5.27377 144.582 3.88571 144.669 2.49931C144.799 0.419885 145.273 -0.0740824 147.385 0.00853944C148.648 0.0582392 149.917 0.278338 151.152 0.556141C152.891 0.947227 153.802 2.17186 153.923 3.90181C154.02 5.31936 153.98 6.74794 153.957 8.17006C153.939 9.17631 154.251 9.7164 155.379 9.83028C158.635 10.1618 161.878 10.6147 165.127 11.0005C166.661 11.1831 167.522 11.8042 167.729 12.9449C168.089 14.9262 167.661 16.2831 166.166 16.8244C164.074 17.581 161.912 18.1575 159.75 18.6907C158.236 19.0645 156.669 19.2245 155.131 19.507C154.099 19.6959 153.538 20.2382 153.547 21.3994C153.586 27.133 153.456 32.8718 153.622 38.6C153.709 41.606 154.16 44.6161 155.44 47.4239C156.475 49.6981 158.241 50.5941 160.697 50.1821C164.302 49.5774 167.606 48.3112 170.484 46.0301C172.081 44.7645 173.132 43.2158 173.212 41.0768C173.356 37.1627 173.549 33.2498 173.779 29.3415C173.845 28.2139 173.973 27.0447 174.349 25.9929C174.558 25.4094 175.324 24.6377 175.857 24.6221C178.801 24.5331 181.766 24.5037 184.696 24.7579C186.54 24.9172 187.806 26.6422 187.708 28.594C187.576 31.3267 187.223 34.0498 186.963 36.7769C186.642 40.1416 186.346 43.5087 185.988 46.8688C185.626 50.2701 188.346 51.9567 191.038 51.9896C193.296 52.0168 194.628 51.174 195.588 48.7843C196.581 46.3108 197.172 43.6294 197.6 40.9848C198.206 37.2303 198.493 33.4241 198.94 29.6434C199.122 28.0993 200.086 26.9122 201.284 26.6547C202.67 26.3572 204.488 26.9193 204.942 28.1861C205.322 29.2448 205.236 30.5382 205.103 31.6992C204.614 36.0051 203.907 40.2894 203.504 44.6038C203.256 47.254 204.741 49.1406 207.316 49.9239C208.599 50.3132 209.929 50.6211 211.258 50.7748C213.591 51.0416 215.244 49.3381 215.731 46.6856C216.144 44.4553 216.199 42.1591 216.399 39.8908C216.634 37.1972 216.668 34.469 217.128 31.8142C217.805 27.8839 220.343 24.3187 225.047 23.1748C227.87 22.4875 230.716 22.4055 233.534 22.7312C237.832 23.2256 242.328 26.1474 243.702 31.0846C244.745 34.8381 244.33 38.4639 243.103 42.0748C241.681 46.2592 239.081 49.5201 235.451 52.0034C235.116 52.2322 234.92 52.6665 234.662 53.0061C235.118 53.2077 235.578 53.5906 236.032 53.5826C240.371 53.5162 244.462 52.5238 248.209 50.2508C249.054 49.739 249.975 49.3513 250.868 48.9267C251.688 48.538 252.172 48.9984 251.943 49.706C251.563 50.8919 251.105 52.1432 250.346 53.1013C247.136 57.1605 242.756 59.1066 237.691 59.4474C235.542 59.5917 233.361 59.3047 231.196 59.1851C229.562 59.0937 227.931 58.9517 226.298 58.8409C225.468 58.7866 224.989 59.1349 224.782 59.9921C223.481 65.3613 222.793 70.8211 222.118 76.2956C221.692 79.7424 221.05 83.1776 220.225 86.5505C219.778 88.3805 218.35 89.6421 216.371 89.9609C215.189 90.1515 214.314 89.6397 213.917 88.5375C213.583 87.6081 213.27 86.6326 213.191 85.6587C212.801 80.8521 212.96 76.0571 213.598 71.2735C213.922 68.8399 214.138 66.3924 214.416 63.9536C214.613 62.2571 214.868 60.5663 215.028 58.8663C215.153 57.4933 214.84 57.1692 213.526 56.9076C210.807 56.3652 208.087 55.832 205.38 55.2325C203.541 54.8235 202.107 55.4749 200.861 56.7424C199.204 58.4274 197.374 59.8917 195.203 60.8385C192.58 61.9828 189.8 61.7424 187.103 61.3149C183.211 60.6952 180.102 58.6487 177.892 55.3647C177.206 54.3458 176.709 53.1963 176.172 52.0853C175.871 51.4633 175.6 51.2213 174.871 51.5932C172.284 52.9103 169.707 54.2625 167.037 55.3907C164.063 56.6477 160.907 57.0895 157.747 56.2081C154.666 55.3473 152.303 53.3638 150.341 50.8845C149.815 50.2201 149.297 49.5511 148.481 48.5062ZM237.216 36.1758C237.182 35.7495 237.182 35.3203 237.112 34.901C236.717 32.4725 234.279 31.3855 232.315 32.8498C231.427 33.5117 230.62 34.381 230.014 35.3112C227.99 38.4136 227.076 41.9679 226.163 45.5025C225.933 46.3903 225.773 47.3291 225.791 48.2405C225.825 49.9382 226.823 50.4373 228.245 49.52C231.196 47.616 233.382 44.9751 235.227 42.0395C236.348 40.2561 237.267 38.3748 237.216 36.1758ZM121.426 37.8885C121.452 36.2011 121.058 34.6398 119.815 33.4262C119.127 32.7537 118.265 32.4609 117.278 32.7689C116.08 33.1402 115.432 34.0292 115.342 35.5045C115.168 38.3626 116.395 40.8183 117.658 43.2356C118.309 44.4805 118.927 44.4411 119.767 43.2906C120.942 41.6818 121.401 39.853 121.426 37.8885ZM92.2929 37.3426C91.9806 36.3091 91.7739 35.2267 91.3278 34.2533C90.7583 33.0148 89.2902 32.4574 87.9918 32.7971C86.6177 33.1576 86.0744 33.8126 86.2169 35.5056C86.3423 36.9792 86.6808 38.4488 87.0729 39.8801C87.3605 40.9321 87.8035 41.9631 88.3273 42.9214C89.0321 44.2124 89.7685 44.2252 90.4615 42.9752C91.4167 41.2543 92.155 39.447 92.2929 37.3426Z" fill="#F64060"/>
</svg>
